<svg width="135" height="44" viewBox="0 0 135 44" fill="none" xmlns="http://www.w3.org/2000/svg">
<path d="M0 5.44762C0 4.98475 0.374432 4.60952 0.836318 4.60952H24.2532C24.7151 4.60952 25.0895 4.98475 25.0895 5.44762V43.1619C25.0895 43.6248 24.7151 44 24.2532 44H0.836319C0.374433 44 0 43.6248 0 43.1619V5.44762Z" fill="#4C4647"/>
<path d="M24.2532 43.4971V44H0.836319L0.836318 43.4971H24.2532ZM24.5877 43.1619V5.44762C24.5877 5.26247 24.438 5.11246 24.2532 5.11246H0.836318C0.651564 5.11246 0.501872 5.26247 0.501872 5.44762V43.1619C0.501872 43.3471 0.651563 43.4971 0.836318 43.4971L0.836319 44C0.374433 44 0 43.6248 0 43.1619V5.44762C0 4.98475 0.374432 4.60952 0.836318 4.60952H24.2532L24.3386 4.61403C24.7604 4.65688 25.0895 5.01363 25.0895 5.44762V43.1619C25.0895 43.5959 24.7604 43.9526 24.3386 43.9955L24.2532 44V43.4971C24.438 43.4971 24.5877 43.3471 24.5877 43.1619Z" fill="#4C4647"/>
<path d="M0 5.44762C0 4.98475 0.374432 4.60952 0.836318 4.60952H23.4169C23.8788 4.60952 24.2532 4.98475 24.2532 5.44762V42.3238C24.2532 42.7867 23.8788 43.1619 23.4169 43.1619H0.836318C0.374433 43.1619 0 42.7867 0 42.3238V5.44762Z" fill="#D8D0C4"/>
<path d="M23.4169 42.659V43.1619H0.836318L0.836318 42.659H23.4169ZM23.7513 42.3238V5.44762C23.7513 5.26247 23.6017 5.11246 23.4169 5.11246H0.836318C0.651564 5.11246 0.501872 5.26247 0.501872 5.44762V42.3238C0.501872 42.509 0.651564 42.659 0.836318 42.659L0.836318 43.1619C0.403252 43.1619 0.047254 42.832 0.00449194 42.4093L0 42.3238V5.44762C0 5.01363 0.329184 4.65688 0.750971 4.61403L0.836318 4.60952H23.4169L23.5022 4.61403C23.924 4.65688 24.2532 5.01363 24.2532 5.44762V42.3238C24.2532 42.7867 23.8788 43.1619 23.4169 43.1619V42.659C23.6017 42.659 23.7513 42.509 23.7513 42.3238Z" fill="#4C4647"/>
<path d="M3.76343 10.4762C3.76343 10.0133 4.13786 9.6381 4.59975 9.6381H20.0716C20.5335 9.6381 20.9079 10.0133 20.9079 10.4762V14.2476C20.9079 14.7105 20.5335 15.0857 20.0716 15.0857H4.59975C4.13786 15.0857 3.76343 14.7105 3.76343 14.2476V10.4762Z" fill="#4C4647"/>
<path d="M20.0716 14.5828V15.0857H4.59975V14.5828H20.0716ZM20.4061 14.2476V10.4762C20.4061 10.291 20.2564 10.141 20.0716 10.141H4.59975C4.41499 10.141 4.2653 10.291 4.2653 10.4762V14.2476C4.2653 14.4328 4.41499 14.5828 4.59975 14.5828V15.0857C4.16668 15.0857 3.81068 14.7558 3.76792 14.3331L3.76343 14.2476V10.4762C3.76343 10.0422 4.09261 9.68545 4.5144 9.6426L4.59975 9.6381H20.0716L20.157 9.6426C20.5788 9.68545 20.9079 10.0422 20.9079 10.4762V14.2476C20.9079 14.7105 20.5335 15.0857 20.0716 15.0857V14.5828C20.2564 14.5828 20.4061 14.4328 20.4061 14.2476Z" fill="#4C4647"/>
<path d="M3.76343 10.4762C3.76343 10.0133 4.13786 9.6381 4.59975 9.6381H19.6535C20.1154 9.6381 20.4898 10.0133 20.4898 10.4762V13.8286C20.4898 14.2914 20.1154 14.6667 19.6535 14.6667H4.59975C4.13786 14.6667 3.76343 14.2914 3.76343 13.8286V10.4762Z" fill="#EAE0D2"/>
<path d="M19.6535 14.1637V14.6667H4.59975V14.1637H19.6535ZM19.9879 13.8286V10.4762C19.9879 10.291 19.8382 10.141 19.6535 10.141H4.59975C4.41499 10.141 4.2653 10.291 4.2653 10.4762V13.8286C4.2653 14.0137 4.41499 14.1637 4.59975 14.1637V14.6667C4.16668 14.6667 3.81068 14.3368 3.76792 13.9141L3.76343 13.8286V10.4762C3.76343 10.0133 4.13786 9.6381 4.59975 9.6381H19.6535L19.7388 9.6426C20.1606 9.68545 20.4898 10.0422 20.4898 10.4762V13.8286L20.4853 13.9141C20.4454 14.3087 20.1325 14.6222 19.7388 14.6622L19.6535 14.6667V14.1637C19.8382 14.1637 19.9879 14.0137 19.9879 13.8286Z" fill="#4C4647"/>
<path d="M3.76343 18.8571C3.76343 18.3943 4.13786 18.019 4.59975 18.019H20.0716C20.5335 18.019 20.9079 18.3943 20.9079 18.8571V22.6286C20.9079 23.0914 20.5335 23.4667 20.0716 23.4667H4.59975C4.13786 23.4667 3.76343 23.0914 3.76343 22.6286V18.8571Z" fill="#4C4647"/>
<path d="M20.0716 22.9637V23.4667H4.59975V22.9637H20.0716ZM20.4061 22.6286V18.8571C20.4061 18.672 20.2564 18.522 20.0716 18.522H4.59975C4.41499 18.522 4.2653 18.672 4.2653 18.8571V22.6286C4.2653 22.8137 4.41499 22.9637 4.59975 22.9637V23.4667C4.16668 23.4667 3.81068 23.1368 3.76792 22.7141L3.76343 22.6286V18.8571C3.76343 18.4232 4.09261 18.0664 4.5144 18.0235L4.59975 18.019H20.0716L20.157 18.0235C20.5788 18.0664 20.9079 18.4232 20.9079 18.8571V22.6286C20.9079 23.0914 20.5335 23.4667 20.0716 23.4667V22.9637C20.2564 22.9637 20.4061 22.8137 20.4061 22.6286Z" fill="#4C4647"/>
<path d="M3.76343 18.8571C3.76343 18.3943 4.13786 18.019 4.59975 18.019H19.6535C20.1154 18.019 20.4898 18.3943 20.4898 18.8571V22.2095C20.4898 22.6724 20.1154 23.0476 19.6535 23.0476H4.59975C4.13786 23.0476 3.76343 22.6724 3.76343 22.2095V18.8571Z" fill="#EAE0D2"/>
<path d="M19.6535 22.5447V23.0476H4.59975V22.5447H19.6535ZM19.9879 22.2095V18.8571C19.9879 18.672 19.8382 18.522 19.6535 18.522H4.59975C4.41499 18.522 4.2653 18.672 4.2653 18.8571V22.2095C4.2653 22.3947 4.41499 22.5447 4.59975 22.5447V23.0476C4.16668 23.0476 3.81068 22.7177 3.76792 22.2951L3.76343 22.2095V18.8571C3.76343 18.3943 4.13786 18.019 4.59975 18.019H19.6535L19.7388 18.0235C20.1606 18.0664 20.4898 18.4232 20.4898 18.8571V22.2095L20.4853 22.2951C20.4454 22.6896 20.1325 23.0031 19.7388 23.0431L19.6535 23.0476V22.5447C19.8382 22.5447 19.9879 22.3947 19.9879 22.2095Z" fill="#4C4647"/>
<path d="M3.76343 27.2381C3.76343 26.7752 4.13786 26.4 4.59975 26.4H20.0716C20.5335 26.4 20.9079 26.7752 20.9079 27.2381V31.0095C20.9079 31.4724 20.5335 31.8476 20.0716 31.8476H4.59975C4.13786 31.8476 3.76343 31.4724 3.76343 31.0095V27.2381Z" fill="#4C4647"/>
<path d="M20.0716 31.3447V31.8476H4.59975V31.3447H20.0716ZM20.4061 31.0095V27.2381C20.4061 27.0529 20.2564 26.9029 20.0716 26.9029H4.59975C4.41499 26.9029 4.2653 27.0529 4.2653 27.2381V31.0095C4.2653 31.1947 4.41499 31.3447 4.59975 31.3447V31.8476C4.16668 31.8476 3.81068 31.5177 3.76792 31.0951L3.76343 31.0095V27.2381C3.76343 26.8041 4.09261 26.4474 4.5144 26.4045L4.59975 26.4H20.0716L20.157 26.4045C20.5788 26.4474 20.9079 26.8041 20.9079 27.2381V31.0095C20.9079 31.4724 20.5335 31.8476 20.0716 31.8476V31.3447C20.2564 31.3447 20.4061 31.1947 20.4061 31.0095Z" fill="#4C4647"/>
<path d="M3.76343 27.2381C3.76343 26.7752 4.13786 26.4 4.59975 26.4H19.6535C20.1154 26.4 20.4898 26.7752 20.4898 27.2381V30.5905C20.4898 31.0533 20.1154 31.4286 19.6535 31.4286H4.59975C4.13786 31.4286 3.76343 31.0533 3.76343 30.5905V27.2381Z" fill="#EAE0D2"/>
<path d="M19.6535 30.9256V31.4286H4.59975V30.9256H19.6535ZM19.9879 30.5905V27.2381C19.9879 27.0529 19.8382 26.9029 19.6535 26.9029H4.59975C4.41499 26.9029 4.2653 27.0529 4.2653 27.2381V30.5905C4.2653 30.7756 4.41499 30.9256 4.59975 30.9256V31.4286C4.16668 31.4286 3.81068 31.0987 3.76792 30.676L3.76343 30.5905V27.2381C3.76343 26.7752 4.13786 26.4 4.59975 26.4H19.6535L19.7388 26.4045C20.1606 26.4474 20.4898 26.8041 20.4898 27.2381V30.5905L20.4853 30.676C20.4454 31.0706 20.1325 31.3841 19.7388 31.4241L19.6535 31.4286V30.9256C19.8382 30.9256 19.9879 30.7756 19.9879 30.5905Z" fill="#4C4647"/>
<path d="M5.01791 0.838095C5.01791 0.375228 5.39234 0 5.85423 0H21.3261C21.788 0 22.1624 0.375228 22.1624 0.838095V5.02857H5.01791V0.838095Z" fill="#4C4647"/>
<path d="M21.6606 0.838095C21.6606 0.652949 21.5109 0.502939 21.3261 0.502939H5.85423C5.66947 0.502939 5.51978 0.652948 5.51978 0.838095V4.52563H21.6606V0.838095ZM22.1624 5.02857H5.01791V0.838095C5.01791 0.404108 5.34709 0.0473544 5.76888 0.00450149L5.85423 0H21.3261L21.4115 0.00450149C21.8332 0.0473545 22.1624 0.404108 22.1624 0.838095V5.02857Z" fill="#4C4647"/>
<path d="M4.59975 0.838095C4.59975 0.375228 4.97418 0 5.43607 0H20.4898C20.9517 0 21.3261 0.375228 21.3261 0.838095V5.02857H4.59975V0.838095Z" fill="#D8D0C4"/>
<path d="M20.8242 0.838095C20.8242 0.652949 20.6745 0.502939 20.4898 0.502939H5.43607C5.25131 0.502939 5.10162 0.652948 5.10162 0.838095V4.52563H20.8242V0.838095ZM21.3261 5.02857H4.59975V0.838095C4.59975 0.375228 4.97418 0 5.43607 0H20.4898L20.5751 0.00450149C20.9969 0.0473545 21.3261 0.404108 21.3261 0.838095V5.02857Z" fill="#4C4647"/>
<path d="M3.76343 35.619C3.76343 35.1562 4.13786 34.781 4.59975 34.781H20.0716C20.5335 34.781 20.9079 35.1562 20.9079 35.619V39.3905C20.9079 39.8533 20.5335 40.2286 20.0716 40.2286H4.59975C4.13786 40.2286 3.76343 39.8533 3.76343 39.3905V35.619Z" fill="#4C4647"/>
<path d="M20.0716 39.7256V40.2286H4.59975V39.7256H20.0716ZM20.4061 39.3905V35.619C20.4061 35.4339 20.2564 35.2839 20.0716 35.2839H4.59975C4.41499 35.2839 4.2653 35.4339 4.2653 35.619V39.3905C4.2653 39.5756 4.41499 39.7256 4.59975 39.7256V40.2286C4.16668 40.2286 3.81068 39.8987 3.76792 39.476L3.76343 39.3905V35.619C3.76343 35.1851 4.09261 34.8283 4.5144 34.7855L4.59975 34.781H20.0716L20.157 34.7855C20.5788 34.8283 20.9079 35.1851 20.9079 35.619V39.3905C20.9079 39.8533 20.5335 40.2286 20.0716 40.2286V39.7256C20.2564 39.7256 20.4061 39.5756 20.4061 39.3905Z" fill="#4C4647"/>
<path d="M3.76343 35.619C3.76343 35.1562 4.13786 34.781 4.59975 34.781H19.6535C20.1154 34.781 20.4898 35.1562 20.4898 35.619V38.9714C20.4898 39.4343 20.1154 39.8095 19.6535 39.8095H4.59975C4.13786 39.8095 3.76343 39.4343 3.76343 38.9714V35.619Z" fill="#EAE0D2"/>
<path d="M19.6535 39.3066V39.8095H4.59975V39.3066H19.6535ZM19.9879 38.9714V35.619C19.9879 35.4339 19.8382 35.2839 19.6535 35.2839H4.59975C4.41499 35.2839 4.2653 35.4339 4.2653 35.619V38.9714C4.2653 39.1566 4.41499 39.3066 4.59975 39.3066V39.8095C4.16668 39.8095 3.81068 39.4796 3.76792 39.057L3.76343 38.9714V35.619C3.76343 35.1562 4.13786 34.781 4.59975 34.781H19.6535L19.7388 34.7855C20.1606 34.8283 20.4898 35.1851 20.4898 35.619V38.9714L20.4853 39.057C20.4454 39.4515 20.1325 39.765 19.7388 39.805L19.6535 39.8095V39.3066C19.8382 39.3066 19.9879 39.1566 19.9879 38.9714Z" fill="#4C4647"/>
<path d="M126.95 11.4387C128.196 11.4387 129.342 11.6133 130.387 11.9625C131.433 12.3117 132.373 12.5387 133.21 12.6435C132.748 14.2673 132.731 16.0177 133.157 17.8946C132.713 18.27 132.204 18.4883 131.629 18.5494C131.559 18.3835 131.433 18.0387 131.25 17.5149C131.075 16.9823 130.906 16.5458 130.74 16.2054C130.583 15.8649 130.361 15.4764 130.074 15.0399C129.795 14.6034 129.42 14.2585 128.95 14.0054C128.488 13.7435 127.957 13.5645 127.356 13.4685C126.476 13.547 125.796 13.8177 125.317 14.2804C124.838 14.7431 124.598 15.3411 124.598 16.0744C124.598 16.8252 124.79 17.445 125.173 17.9339C125.557 18.4141 126.053 18.7764 126.663 19.0208C127.281 19.2565 127.961 19.4661 128.701 19.6494C129.442 19.824 130.178 20.0423 130.91 20.3042C131.642 20.5573 132.312 20.8935 132.922 21.3125C133.541 21.7228 134.042 22.3383 134.425 23.1589C134.808 23.9796 135 24.9792 135 26.1577C135 27.5895 134.586 28.8204 133.759 29.8506C132.931 30.8808 131.955 31.6185 130.831 32.0637C129.708 32.5089 128.558 32.7315 127.382 32.7315C124.794 32.7315 122.233 32.1597 119.698 31.0161C119.75 29.8899 119.776 29.2002 119.776 28.947C119.776 27.5327 119.641 26.0137 119.371 24.3899C120.155 24.0145 121.031 23.997 121.998 24.3375C122.32 26.3192 122.943 27.8383 123.867 28.8946C124.799 29.951 125.818 30.5403 126.924 30.6625C127.961 30.5927 128.758 30.2565 129.316 29.6542C129.882 29.0431 130.165 28.2704 130.165 27.3363C130.165 26.5506 129.982 25.8871 129.616 25.3458C129.25 24.7958 128.767 24.3724 128.166 24.0756C127.565 23.77 126.911 23.495 126.206 23.2506C125.509 23.0062 124.803 22.7486 124.089 22.478C123.374 22.1986 122.717 21.8669 122.115 21.4827C121.523 21.0986 121.044 20.5617 120.678 19.872C120.312 19.1823 120.129 18.3442 120.129 17.3577C120.129 16.4673 120.269 15.6685 120.547 14.9613C120.835 14.2542 121.205 13.6867 121.658 13.2589C122.12 12.8312 122.656 12.4732 123.265 12.1851C123.884 11.897 124.494 11.7006 125.095 11.5958C125.705 11.4911 126.323 11.4387 126.95 11.4387ZM126.95 11.9756C126.219 11.9756 125.509 12.0629 124.82 12.2375C124.132 12.4034 123.461 12.6784 122.808 13.0625C122.163 13.4466 121.645 14.0097 121.253 14.7518C120.861 15.4938 120.665 16.3625 120.665 17.3577C120.665 18.2395 120.848 18.999 121.214 19.6363C121.58 20.2649 122.059 20.7538 122.651 21.103C123.252 21.4522 123.91 21.7621 124.624 22.0327C125.339 22.2946 126.044 22.5609 126.741 22.8315C127.447 23.1022 128.1 23.4077 128.701 23.7482C129.303 24.0887 129.786 24.5645 130.152 25.1756C130.518 25.778 130.701 26.4982 130.701 27.3363C130.701 28.4974 130.331 29.4359 129.59 30.1518C128.85 30.8677 127.8 31.2256 126.441 31.2256C125.134 31.2256 123.919 30.68 122.795 29.5887C121.671 28.4974 120.931 26.8649 120.574 24.6911C120.399 24.5776 120.195 24.5776 119.959 24.6911C120.195 26.0617 120.312 27.4804 120.312 28.947C120.312 29.3573 120.295 29.9379 120.26 30.6887C122.42 31.6927 124.481 32.1946 126.441 32.1946C128.061 32.1946 129.56 31.7145 130.936 30.7542C132.312 29.7851 133.001 28.4319 133.001 26.6946C133.001 25.7081 132.809 24.8744 132.426 24.1935C132.042 23.5038 131.541 22.9669 130.923 22.5827C130.304 22.1986 129.625 21.8669 128.884 21.5875C128.144 21.3081 127.408 21.0462 126.676 20.8018C125.944 20.5486 125.269 20.2692 124.651 19.9637C124.041 19.6581 123.544 19.226 123.161 18.6673C122.778 18.0998 122.586 17.4145 122.586 16.6113C122.586 15.4851 122.965 14.5859 123.723 13.9137C124.481 13.2415 125.557 12.9054 126.95 12.9054C129.372 12.9054 131.041 14.5859 131.955 17.947C132.225 17.9907 132.413 17.9296 132.517 17.7637C132.23 15.6335 131.598 14.1363 130.622 13.272C129.655 12.4077 128.431 11.9756 126.95 11.9756Z" fill="#2F281B"/>
<path d="M105.781 13.4685C105.11 13.5208 104.509 13.6823 103.978 13.953C103.446 14.2236 102.98 14.5772 102.58 15.0137C102.179 15.4415 101.835 15.9347 101.547 16.4935C101.269 17.0435 101.038 17.6284 100.855 18.2482C100.68 18.8681 100.55 19.5097 100.463 20.1732C100.384 20.828 100.345 21.474 100.345 22.1113C100.345 22.7486 100.384 23.399 100.463 24.0625C100.55 24.7173 100.685 25.3546 100.868 25.9744C101.051 26.5942 101.282 27.1792 101.56 27.7292C101.848 28.2792 102.192 28.7681 102.593 29.1958C103.002 29.6149 103.468 29.9554 103.991 30.2173C104.522 30.4792 105.119 30.6363 105.781 30.6887C106.461 30.6363 107.066 30.4792 107.598 30.2173C108.129 29.9466 108.595 29.6018 108.996 29.1827C109.405 28.755 109.749 28.2661 110.028 27.7161C110.316 27.1573 110.546 26.5724 110.721 25.9613C110.904 25.3415 111.034 24.7042 111.113 24.0494C111.2 23.3859 111.243 22.7399 111.243 22.1113C111.243 21.474 111.2 20.828 111.113 20.1732C111.034 19.5097 110.904 18.8681 110.721 18.2482C110.546 17.6196 110.316 17.0304 110.028 16.4804C109.749 15.9216 109.405 15.4284 108.996 15.0006C108.595 14.5728 108.125 14.2236 107.584 13.953C107.053 13.6823 106.452 13.5208 105.781 13.4685ZM105.324 31.2518C104.461 31.2518 103.69 31.1252 103.011 30.872C102.331 30.6101 101.73 30.2609 101.208 29.8244C100.694 29.3792 100.254 28.8597 99.8877 28.2661C99.5305 27.6724 99.2343 27.0395 98.9991 26.3673C98.7726 25.6863 98.6071 24.9835 98.5026 24.2589C98.398 23.5256 98.3458 22.8097 98.3458 22.1113C98.3458 21.4129 98.398 20.7014 98.5026 19.9768C98.6071 19.2435 98.7726 18.5363 98.9991 17.8554C99.2256 17.1744 99.5218 16.5327 99.8877 15.9304C100.254 15.328 100.694 14.8042 101.208 14.3589C101.722 13.9137 102.318 13.5601 102.998 13.2982C103.686 13.0363 104.461 12.9054 105.324 12.9054C106.117 12.9054 106.827 13.0363 107.454 13.2982C108.081 13.5514 108.63 13.905 109.1 14.3589C109.579 14.8042 109.989 15.328 110.329 15.9304C110.668 16.5327 110.943 17.1744 111.152 17.8554C111.37 18.5363 111.526 19.2435 111.622 19.9768C111.727 20.7014 111.779 21.4129 111.779 22.1113C111.779 22.8097 111.731 23.5212 111.635 24.2458C111.54 24.9617 111.383 25.6601 111.165 26.3411C110.956 27.0133 110.681 27.6506 110.342 28.253C110.011 28.8466 109.606 29.3661 109.126 29.8113C108.647 30.2565 108.094 30.6101 107.467 30.872C106.84 31.1252 106.125 31.2518 105.324 31.2518ZM105.324 32.1946C105.925 32.1946 106.574 32.1335 107.271 32.0113C107.968 31.8891 108.66 31.6796 109.349 31.3827C110.045 31.0859 110.716 30.6887 111.361 30.1911C112.006 29.6935 112.572 29.0736 113.06 28.3315C113.556 27.5808 113.953 26.6946 114.249 25.6732C114.545 24.6431 114.693 23.4558 114.693 22.1113C114.693 20.7931 114.545 19.6276 114.249 18.6149C113.961 17.5935 113.574 16.7073 113.086 15.9565C112.598 15.2058 112.036 14.5772 111.4 14.0708C110.764 13.5645 110.098 13.1585 109.401 12.853C108.704 12.5387 108.003 12.3161 107.297 12.1851C106.6 12.0454 105.942 11.9756 105.324 11.9756C104.723 11.9756 104.061 12.0367 103.338 12.1589C102.614 12.2724 101.887 12.4776 101.155 12.7744C100.423 13.0625 99.7135 13.4554 99.0253 13.953C98.337 14.4506 97.7272 15.0748 97.1958 15.8256C96.6644 16.5764 96.2375 17.4712 95.9152 18.5101C95.5929 19.5403 95.4317 20.7407 95.4317 22.1113C95.4317 23.4383 95.5842 24.6081 95.8891 25.6208C96.2027 26.6335 96.6165 27.5153 97.1305 28.2661C97.6445 29.0081 98.2369 29.6323 98.9077 30.1387C99.5872 30.6363 100.293 31.0379 101.025 31.3435C101.756 31.649 102.493 31.8673 103.233 31.9982C103.973 32.1292 104.67 32.1946 105.324 32.1946ZM105.781 32.7839C104.03 32.7839 102.479 32.5264 101.129 32.0113C99.7788 31.505 98.642 30.7891 97.7185 29.8637C96.7951 28.9296 96.0938 27.8077 95.6147 26.4982C95.1355 25.18 94.8959 23.7177 94.8959 22.1113C94.8959 20.505 95.1355 19.047 95.6147 17.7375C96.0938 16.4192 96.7951 15.2974 97.7185 14.372C98.642 13.4379 99.7788 12.7177 101.129 12.2113C102.479 11.6962 104.03 11.4387 105.781 11.4387C107.428 11.4387 108.922 11.6744 110.263 12.1458C111.614 12.6173 112.764 13.3069 113.713 14.2149C114.671 15.1141 115.408 16.2272 115.922 17.5542C116.444 18.8812 116.706 20.4002 116.706 22.1113C116.706 23.8312 116.444 25.3546 115.922 26.6815C115.408 27.9998 114.671 29.1129 113.713 30.0208C112.764 30.9288 111.614 31.6141 110.263 32.0768C108.922 32.5482 107.428 32.7839 105.781 32.7839Z" fill="#2F281B"/>
<path d="M79.3979 20.6054C80.0949 20.6054 80.6001 20.8323 80.9138 21.2863C81.2274 21.7315 81.3842 22.2903 81.3842 22.9625C81.3842 23.2157 81.3406 23.5038 81.2535 23.8268H76.1572C76.4273 22.7355 76.8628 21.928 77.4639 21.4042C78.0738 20.8716 78.7184 20.6054 79.3979 20.6054ZM76.0265 24.7173H83.1483C83.2877 24.2808 83.3574 23.8312 83.3574 23.3685C83.3574 22.347 83.0655 21.4915 82.4819 20.8018C81.9069 20.1034 80.9878 19.7542 79.7246 19.7542C78.0781 19.7542 76.693 20.3522 75.5692 21.5482C74.4454 22.7442 73.8835 24.2633 73.8835 26.1054C73.8835 28.0696 74.4192 29.5494 75.4908 30.5446C76.5623 31.5399 77.8211 32.0375 79.2673 32.0375C80.3388 32.0375 81.3319 31.7494 82.2466 31.1732C83.1701 30.5883 83.8452 29.7109 84.2721 28.5411C84.1501 28.4014 83.9803 28.3054 83.7625 28.253C83.7276 28.3054 83.6231 28.4494 83.4488 28.6851C83.2833 28.9121 83.1614 29.078 83.083 29.1827C83.0046 29.2788 82.8608 29.4228 82.6517 29.6149C82.4514 29.7982 82.2553 29.9335 82.0637 30.0208C81.8807 30.1081 81.6455 30.1954 81.3581 30.2827C81.0706 30.3613 80.7569 30.4006 80.4172 30.4006C79.0756 30.4006 78.0084 30.0034 77.2157 29.2089C76.4229 28.4058 76.0091 27.3276 75.9743 25.9744C75.9743 25.6688 75.9917 25.2498 76.0265 24.7173ZM83.5534 27.6375C84.1022 27.7597 84.5465 28.0347 84.8863 28.4625C84.3897 29.8244 83.6231 30.8502 82.5864 31.5399C81.5497 32.2296 80.4433 32.5744 79.2673 32.5744C77.6643 32.5744 76.2748 32.0331 75.0987 30.9506C73.9314 29.8681 73.3477 28.253 73.3477 26.1054C73.3477 24.1585 73.9444 22.526 75.1379 21.2077C76.3401 19.8808 78.0389 19.2173 80.2342 19.2173C83.5534 19.2173 85.213 20.601 85.213 23.3685C85.213 23.9097 85.0866 24.5383 84.834 25.2542H77.8168V26.1054C77.8603 27.1617 78.1478 28.0216 78.6792 28.6851C79.2106 29.3399 79.9424 29.724 80.8746 29.8375C81.4234 29.7851 81.8764 29.5974 82.2336 29.2744C82.5907 28.9514 83.0307 28.4058 83.5534 27.6375ZM80.8484 22.9625C80.8484 22.0022 80.5261 21.4216 79.8814 21.2208C79.1148 21.4565 78.5442 22.1462 78.1696 23.2899H80.8223C80.8223 23.255 80.8266 23.2026 80.8354 23.1327C80.8441 23.0629 80.8484 23.0062 80.8484 22.9625Z" fill="#2F281B"/>
<path d="M68.7218 29.8375C68.7392 30.178 69.3273 30.4442 70.4859 30.6363C70.7734 31.2125 70.756 31.7669 70.4336 32.2994C66.7399 32.1772 63.9478 32.151 62.0574 32.2208C61.7351 31.7058 61.7176 31.1776 62.0051 30.6363C63.4687 30.4442 64.2092 30.178 64.2266 29.8375C64.2614 28.9732 64.2789 26.3149 64.2789 21.8625H62.6716C62.3841 21.1728 62.3841 20.505 62.6716 19.8589H64.2789V19.0208C64.2789 16.847 64.8408 15.005 65.9646 13.4946C67.0884 11.9756 68.6913 11.2161 70.7734 11.2161C71.8275 11.2161 72.7161 11.4954 73.4392 12.0542C74.1622 12.6042 74.5238 13.3375 74.5238 14.2542C74.5238 14.8391 74.3234 15.3498 73.9227 15.7863C73.5219 16.2141 72.9992 16.428 72.3546 16.428C71.8232 16.428 71.4094 16.2927 71.1132 16.022C70.817 15.7514 70.6689 15.4109 70.6689 15.0006C70.6689 14.2673 70.9302 13.7958 71.4529 13.5863C71.2351 13.4554 70.9215 13.3899 70.5121 13.3899C69.9632 13.4859 69.5102 13.7653 69.153 14.228C68.7959 14.6907 68.6173 15.2712 68.6173 15.9696V19.8589H71.283C71.5705 20.5573 71.5705 21.2252 71.283 21.8625H68.6173C68.6173 25.9395 68.6521 28.5978 68.7218 29.8375ZM70.5121 12.6173C71.3832 12.6173 72.0105 12.7744 72.3938 13.0887C72.7771 13.403 72.9687 13.774 72.9687 14.2018C72.9687 14.8216 72.7466 15.2058 72.3023 15.3542C72.1803 15.5288 72.1803 15.7339 72.3023 15.9696C72.764 15.9696 73.1604 15.795 73.4914 15.4458C73.8225 15.0966 73.988 14.6994 73.988 14.2542C73.988 13.5034 73.6787 12.901 73.0602 12.447C72.4504 11.9843 71.6881 11.753 70.7734 11.753C68.8656 11.753 67.3933 12.4558 66.3566 13.8613C65.3286 15.2669 64.8146 16.9867 64.8146 19.0208V20.3958H63.0505C62.9199 20.6839 62.9199 20.9982 63.0505 21.3387H64.8146C64.8146 26.1577 64.7972 28.9994 64.7624 29.8637C64.7449 30.5097 64.0045 30.9288 62.5409 31.1208C62.4102 31.3565 62.4102 31.5617 62.5409 31.7363C64.8233 31.6315 67.3105 31.6315 70.0024 31.7363C70.1244 31.5617 70.1244 31.3565 70.0024 31.1208C67.9378 30.9288 66.8924 30.5097 66.8662 29.8637C66.7965 28.5018 66.7617 25.6601 66.7617 21.3387H70.7734C70.9041 21.0506 70.9041 20.7363 70.7734 20.3958H66.7617V16.5851C66.7617 15.5288 67.1276 14.6034 67.8594 13.8089C68.5911 13.0145 69.4754 12.6173 70.5121 12.6173Z" fill="#2F281B"/>
<path d="M55.5759 13.2589C57.5448 13.2589 58.5292 13.9748 58.5292 15.4065C58.5292 16.8383 57.5448 17.5542 55.5759 17.5542C55.2797 17.5542 55.001 17.4974 54.7396 17.3839C54.487 17.2704 54.2648 17.1177 54.0732 16.9256C53.8815 16.7248 53.7291 16.4935 53.6158 16.2315C53.5026 15.9696 53.4459 15.6946 53.4459 15.4065C53.4459 15.1185 53.5026 14.8435 53.6158 14.5815C53.7291 14.3196 53.8815 14.0927 54.0732 13.9006C54.2648 13.6998 54.487 13.5427 54.7396 13.4292C55.001 13.3157 55.2797 13.2589 55.5759 13.2589ZM54.3737 14.2804C54.1124 14.5859 53.9817 14.9613 53.9817 15.4065C53.9817 15.6335 54.0166 15.8474 54.0862 16.0482C54.1647 16.2403 54.2692 16.4105 54.3999 16.5589C54.5305 16.6986 54.6786 16.8121 54.8442 16.8994C55.0184 16.978 55.2013 17.0173 55.393 17.0173C55.5759 17.0173 55.7545 16.978 55.9288 16.8994C56.103 16.8121 56.2554 16.6986 56.3861 16.5589C56.5168 16.4105 56.6213 16.2403 56.6997 16.0482C56.7781 15.8474 56.8173 15.6335 56.8173 15.4065C56.8173 15.1796 56.7781 14.97 56.6997 14.778C56.6213 14.5772 56.5168 14.4069 56.3861 14.2673C56.2554 14.1188 56.103 14.0054 55.9288 13.9268C55.7545 13.8395 55.5759 13.7958 55.393 13.7958C55.21 13.7958 55.0315 13.8351 54.8572 13.9137C54.683 13.9923 54.5218 14.1145 54.3737 14.2804ZM59.653 31.0554C57.5796 30.8633 56.5342 30.4442 56.5168 29.7982C56.4297 27.1792 56.3948 23.9621 56.4123 20.147C56.3426 20.0073 56.1901 19.8938 55.9549 19.8065C54.744 20.374 53.4851 20.7319 52.1784 20.8804C52.1261 21.0899 52.1261 21.295 52.1784 21.4958C53.1628 21.5482 53.912 21.7272 54.426 22.0327C54.5044 25.2891 54.4957 27.8776 54.3999 29.7982C54.3824 30.4442 53.642 30.8633 52.1784 31.0554C52.0913 31.2736 52.0913 31.4875 52.1784 31.697C54.6786 31.6446 57.1702 31.6446 59.653 31.697C59.7401 31.4875 59.7401 31.2736 59.653 31.0554ZM60.1365 30.5708C60.2759 31.1121 60.2759 31.6403 60.1365 32.1554C57.3313 32.0681 54.5218 32.0681 51.708 32.1554C51.5599 31.6403 51.5599 31.1121 51.708 30.5708C53.128 30.4312 53.8467 30.1649 53.8641 29.772C53.9774 27.3276 53.9861 24.8526 53.8902 22.347C53.3066 22.1724 52.5791 22.0589 51.708 22.0065C51.5076 21.4827 51.5076 20.9284 51.708 20.3435C53.0234 20.2736 54.5044 19.8808 56.1509 19.1649C57.0918 19.2347 57.7931 19.5185 58.2548 20.0161C58.2199 24.3113 58.2548 27.5633 58.3593 29.772C58.3854 30.1649 58.9778 30.4312 60.1365 30.5708Z" fill="#2F281B"/>
<path d="M35.2168 21.6006C35.2168 19.453 35.2604 17.0129 35.3475 14.2804C35.3649 13.6169 36.8198 13.1978 39.712 13.0232C39.7643 12.8573 39.7643 12.6522 39.712 12.4077C37.4296 12.4776 35.6481 12.5125 34.3674 12.5125C33.2959 12.5125 31.7757 12.4776 29.8069 12.4077C29.7372 12.5649 29.7372 12.77 29.8069 13.0232C31.8106 13.2153 32.8211 13.6343 32.8385 14.2804C32.9257 16.3319 32.9692 18.772 32.9692 21.6006C32.9692 24.3681 32.9169 27.1224 32.8124 29.8637C32.795 30.5097 31.7844 30.9288 29.7808 31.1208C29.7285 31.3391 29.7285 31.5442 29.7808 31.7363C31.4621 31.6839 35.3693 31.6577 41.5023 31.6577C43.5931 31.6577 45.1612 31.2649 46.2066 30.4792C47.252 29.6935 48.2277 28.3708 49.1337 26.5113C49.064 26.3629 48.9115 26.245 48.6763 26.1577C48.3366 26.7863 47.962 27.345 47.5525 27.8339C47.1431 28.3228 46.6029 28.8161 45.9321 29.3137C45.2614 29.8026 44.425 30.1823 43.4232 30.453C42.4301 30.7236 41.3019 30.8589 40.0387 30.8589H35.3214C35.2517 27.7946 35.2168 24.7085 35.2168 21.6006ZM37.2031 22.5696C37.2031 24.9617 37.2379 27.5458 37.3076 30.322H40.0126C43.8806 30.322 46.6901 28.7113 48.4411 25.4899C49.1729 25.7605 49.6346 26.101 49.8263 26.5113C48.5805 28.5804 47.8487 30.4748 47.6309 32.1946H37.0855C33.6444 32.1946 31.0875 32.2208 29.4149 32.2732C29.2319 31.7058 29.2232 31.1514 29.3887 30.6101C31.2966 30.4181 32.2592 30.1605 32.2766 29.8375C32.3812 27.0962 32.4335 24.3506 32.4335 21.6006C32.4335 18.7895 32.3899 16.3581 32.3028 14.3065C32.2854 13.9835 31.314 13.726 29.3887 13.5339C29.2406 12.9577 29.2581 12.3946 29.441 11.8446C30.9568 11.9319 32.9082 11.9756 35.2952 11.9756C35.6524 11.9756 36.3668 11.9669 37.4383 11.9494C38.5098 11.9319 39.4463 11.9232 40.2478 11.9232C40.4133 12.4208 40.422 12.9577 40.2739 13.5339C38.3487 13.726 37.3773 13.9835 37.3599 14.3065C37.2553 16.4891 37.2031 19.2435 37.2031 22.5696Z" fill="#2F281B"/>
</svg>
